<?xml version="1.0" encoding="UTF-8"?>
<svg width="642px" height="181px" viewBox="0 0 642 181" version="1.1" xmlns="http://www.w3.org/2000/svg" xmlns:xlink="http://www.w3.org/1999/xlink">
    <title>full_light</title>
    <g id="full_light" stroke="none" stroke-width="1" fill="none" fill-rule="evenodd">
        <g id="Group">
            <circle id="Oval" fill="#941100" cx="91.0027778" cy="91.0027778" r="91.0027778"></circle>
            <path d="M69.2598935,140.777778 L74.7595891,100.583961 L85.6179625,100.583961 L100.988907,140.777778 L127.359242,140.777778 L107.898781,98.3115191 C115.137696,96.985928 120.919427,93.8376491 125.243974,88.8666824 C129.568521,83.8957156 132.24786,77.8595417 133.281991,70.7581607 C134.128098,64.8876857 133.799056,59.9877328 132.294866,56.0583019 C130.790676,52.1288711 128.487385,49.0042634 125.384992,46.684479 C122.2826,44.3646945 118.522124,42.7077056 114.103565,41.7135122 C109.685007,40.7193189 104.937406,40.2222222 99.860764,40.2222222 L99.860764,40.2222222 L61.2218769,40.2222222 L47.2611111,140.777778 L69.2598935,140.777778 Z M90.4059552,81.45 L77.4277778,81.45 L80.531255,58.3222222 L94.9201039,58.3222222 C96.895044,58.3222222 98.8934952,58.465873 100.915458,58.7531746 C102.93742,59.0404762 104.700759,59.5911376 106.205476,60.4051587 C107.710192,61.2191799 108.885751,62.392328 109.732154,63.9246032 C110.578557,65.4568783 110.813669,67.515873 110.43749,70.1015873 C110.061311,72.878836 109.167886,75.0335979 107.757214,76.565873 C106.346543,78.0981481 104.700759,79.2234127 102.819864,79.9416667 C100.938969,80.6599206 98.8934952,81.090873 96.6834432,81.2345238 C94.4733913,81.3781746 92.3808953,81.45 90.4059552,81.45 L90.4059552,81.45 Z" id="R" fill="#FFFFFF" fill-rule="nonzero"></path>
        </g>
        <path d="M213.327085,141 L213.327085,97.8429355 L232.884724,97.8429355 L253.760075,141 L272,141 L248.558575,96.1803841 C261.412059,91.2389118 267.931271,81.9101509 268.116214,68.1941015 C267.8388,58.8653406 264.486723,51.6840421 258.059981,46.6502058 C252.742893,42.2167353 245.876913,40 237.462043,40 L198,40 L198,141 L213.327085,141 Z M236.994836,85 L214,85 L214,54 L237.820998,54 C242.686173,54 246.403901,55.0520362 248.974182,57.1561086 C252.232932,59.540724 253.908204,63.39819 254,68.7285068 C254,73.1704374 252.600115,76.9110106 249.800344,79.9502262 C246.954676,83.2232278 242.686173,84.9064857 236.994836,85 Z M303.461722,142 C308.364434,142 312.203349,141.396733 314.978469,140.190198 C317.799841,139.030069 319.88118,137.220268 321.222488,134.760794 L321.5,134.760794 L321.5,141.164707 L336,141.164707 L336,91.8128116 C335.907496,82.9958298 333.155502,76.7775374 327.744019,73.1579343 C322.332536,69.6311416 315.094099,67.9141504 306.028708,68.0069608 C295.298246,67.8213401 287.181021,71.3481328 281.677033,78.5873389 L293.055024,87.2883078 C294.303828,85.2000753 296.015152,83.7151099 298.188995,82.8334117 C300.270335,82.090929 303.114833,81.7196877 306.722488,81.7196877 C316.489092,81.5373817 321.414981,84.5108416 321.500155,90.6400675 L321.5,98.5647634 L301.449761,98.5647634 C293.77193,98.6575738 287.944179,100.745806 283.966507,104.829461 C279.988836,108.820305 278,113.855266 278,119.934343 C278,126.291851 280.289474,131.512432 284.868421,135.596087 C289.216108,139.772552 295.413876,141.90719 303.461722,142 Z M305.675244,128.991968 C300.838279,128.991968 297.373338,128.031459 295.280421,126.110442 C293.094485,124.376841 292.001517,122.268407 292.001517,119.785141 C291.908498,114.115797 296.094333,111.187416 304.559021,111 L322,111 L322,116.271084 C322,121.753012 320.860523,125.267068 318.581568,126.813253 C316.070067,128.359438 311.767959,129.085676 305.675244,128.991968 Z M379.59759,142 C387.330924,141.814966 393.596787,139.016327 398.395181,133.604082 L398.395181,141.167347 L413,141.167347 L413,40 L398.395181,40 L398.395181,76.7755102 C395.693173,74.2312925 392.874699,72.1496599 389.939759,70.5306122 C386.771888,69.0040816 383.324498,68.2408163 379.59759,68.2408163 C370.746185,68.4721088 364.270683,71.6176871 360.171084,77.677551 C358.167871,79.9442177 356.840161,82.9278912 356.187952,86.6285714 C355.395984,90.2829932 355,96.4353741 355,105.085714 C355,113.597279 355.395984,119.703401 356.187952,123.404082 C356.840161,127.289796 358.167871,130.365986 360.171084,132.632653 C362.360643,135.408163 365.085944,137.628571 368.346988,139.293878 C371.468273,141.005442 375.218474,141.907483 379.59759,142 Z M384.570388,128 C381.097896,128 378.446602,127.348837 376.616505,126.046512 C374.598706,124.697674 373.12055,122.976744 372.182039,120.883721 C371.290453,118.697674 370.703883,116.232558 370.42233,113.488372 C370.140777,110.883721 370,108.209302 370,105.465116 C370,102.581395 370.140777,99.7674419 370.42233,97.0232558 C370.703883,94.4651163 371.290453,92.0930233 372.182039,89.9069767 C373.12055,87.7209302 374.598706,86 376.616505,84.744186 C378.446602,83.5813953 381.097896,83 384.570388,83 C388.04288,83 390.788026,83.6744186 392.805825,85.0232558 C394.823625,86.372093 396.207929,88.1395349 396.958738,90.3255814 C397.897249,92.5116279 398.530744,94.8837209 398.859223,97.4418605 C398.953074,100 399,102.674419 399,105.465116 C399,108.023256 398.953074,110.627907 398.859223,113.27907 C398.530744,115.976744 397.897249,118.418605 396.958738,120.604651 C396.207929,122.790698 394.823625,124.55814 392.805825,125.906977 C390.788026,127.302326 388.04288,128 384.570388,128 Z M444,55 L444,40 L429,40 L429,55 L444,55 Z M444,141 L444,69 L429,69 L429,141 L444,141 Z M487.318072,142 C495.051406,142 501.317269,139.149524 506.115663,133.448571 L506.395181,133.448571 L506.395181,141.165714 L521,141.165714 L521,69 L506.395181,69 L506.395181,111.965714 C506.395181,116.832381 505.044177,120.633016 502.342169,123.367619 C499.686747,126.102222 496.262651,127.469524 492.06988,127.469524 C487.877108,127.469524 484.429719,126.102222 481.727711,123.367619 C478.979116,120.633016 477.604819,116.832381 477.604819,111.965714 L477.604819,69 L463,69 L463,116.971429 C463.093173,125.128889 465.771888,131.293333 471.036145,135.464762 C475.881124,139.728889 481.308434,141.907302 487.318072,142 Z M555.557931,141 L555.557931,98.0763334 C555.557931,93.029214 556.951034,89.1859947 559.737241,86.5466754 C562.384138,83.8610522 565.797241,82.5182406 569.976552,82.5182406 C574.155862,82.5182406 577.592184,83.8610522 580.285517,86.5466754 C582.932414,89.1859947 584.255862,93.029214 584.255862,98.0763334 L584.255862,141 L598.813793,141 L598.813793,98.0763334 C598.813793,93.029214 600.183678,89.1859947 602.923448,86.5466754 C605.616782,83.8610522 609.053103,82.5182406 613.232414,82.5182406 C617.411724,82.5182406 620.824828,83.8610522 623.471724,86.5466754 C626.118621,89.1859947 627.442069,93.029214 627.442069,98.0763334 L627.442069,141 L642,141 L642,93.0755179 C641.814253,84.833433 639.26023,78.5824136 634.337931,74.3224596 C629.369195,70.1088095 623.889655,68.0019845 617.89931,68.0019845 C608.37977,67.9093768 600.787356,71.0580384 595.122069,77.4479693 C592.614483,74.6697385 589.851494,72.377698 586.833103,70.571848 C583.768276,68.9512133 579.728276,68.0945921 574.713103,68.0019845 C566.911724,68.0019845 560.61954,70.8496711 555.836552,76.5450443 L555.557931,76.5450443 L555.557931,68.9049095 L541,68.9049095 L541,141 L555.557931,141 Z" id="Radium" fill="#941100" fill-rule="nonzero"></path>
    </g>
</svg>