<?xml version="1.0" encoding="UTF-8"?>
<svg width="181px" height="181px" viewBox="0 0 181 181" version="1.1" xmlns="http://www.w3.org/2000/svg" xmlns:xlink="http://www.w3.org/1999/xlink">
    <title>logo_light</title>
    <g id="logo_light" stroke="none" stroke-width="1" fill="none" fill-rule="evenodd">
        <g id="Group">
            <circle id="Oval" fill="#941100" cx="91.0027778" cy="91.0027778" r="91.0027778"></circle>
            <path d="M69.2598935,140.777778 L74.7595891,100.583961 L85.6179625,100.583961 L100.988907,140.777778 L127.359242,140.777778 L107.898781,98.3115191 C115.137696,96.985928 120.919427,93.8376491 125.243974,88.8666824 C129.568521,83.8957156 132.24786,77.8595417 133.281991,70.7581607 C134.128098,64.8876857 133.799056,59.9877328 132.294866,56.0583019 C130.790676,52.1288711 128.487385,49.0042634 125.384992,46.684479 C122.2826,44.3646945 118.522124,42.7077056 114.103565,41.7135122 C109.685007,40.7193189 104.937406,40.2222222 99.860764,40.2222222 L99.860764,40.2222222 L61.2218769,40.2222222 L47.2611111,140.777778 L69.2598935,140.777778 Z M90.4059552,81.45 L77.4277778,81.45 L80.531255,58.3222222 L94.9201039,58.3222222 C96.895044,58.3222222 98.8934952,58.465873 100.915458,58.7531746 C102.93742,59.0404762 104.700759,59.5911376 106.205476,60.4051587 C107.710192,61.2191799 108.885751,62.392328 109.732154,63.9246032 C110.578557,65.4568783 110.813669,67.515873 110.43749,70.1015873 C110.061311,72.878836 109.167886,75.0335979 107.757214,76.565873 C106.346543,78.0981481 104.700759,79.2234127 102.819864,79.9416667 C100.938969,80.6599206 98.8934952,81.090873 96.6834432,81.2345238 C94.4733913,81.3781746 92.3808953,81.45 90.4059552,81.45 L90.4059552,81.45 Z" id="R" fill="#FFFFFF" fill-rule="nonzero"></path>
        </g>
    </g>
</svg>