<?xml version="1.0" encoding="UTF-8"?>
<svg width="181px" height="181px" viewBox="0 0 181 181" version="1.1" xmlns="http://www.w3.org/2000/svg" xmlns:xlink="http://www.w3.org/1999/xlink">
    <title>logo_red</title>
    <g id="logo_red" stroke="none" stroke-width="1" fill="none" fill-rule="evenodd">
        <g id="Group">
            <circle id="Oval" fill="#FFFFFF" cx="90.5" cy="90.5" r="90.5"></circle>
            <path d="M68.8772422,140 L74.3465527,100.028249 L85.1449351,100.028249 L100.430957,140 L126.6556,140 L107.302655,97.7683616 C114.501576,96.4500942 120.251364,93.319209 124.552019,88.3757062 C128.852673,83.4322034 131.517209,77.4293785 132.545627,70.3672316 C133.387059,64.5291902 133.059835,59.6563089 131.563955,55.7485876 C130.068076,51.8408663 127.77751,48.7335217 124.692258,46.4265537 C121.607005,44.1195857 117.867306,42.4717514 113.473159,41.4830508 C109.079012,40.4943503 104.357641,40 99.309047,40 L99.309047,40 L60.8836345,40 L47,140 L68.8772422,140 Z M89.9064748,81 L77,81 L80.0863309,58 L94.3956835,58 C96.3597122,58 98.3471223,58.1428571 100.357914,58.4285714 C102.368705,58.7142857 104.122302,59.2619048 105.618705,60.0714286 C107.115108,60.8809524 108.284173,62.047619 109.125899,63.5714286 C109.967626,65.0952381 110.201439,67.1428571 109.827338,69.7142857 C109.453237,72.4761905 108.564748,74.6190476 107.161871,76.1428571 C105.758993,77.6666667 104.122302,78.7857143 102.251799,79.5 C100.381295,80.2142857 98.3471223,80.6428571 96.1492806,80.7857143 C93.9514388,80.9285714 91.8705036,81 89.9064748,81 L89.9064748,81 Z" id="R" fill="#941100" fill-rule="nonzero"></path>
        </g>
    </g>
</svg>